# xmcd
#
# Track frame offsets: 
#        150
#        10740
#        22993
#        37622
#        49008
#        66954
#        81818
#        95962
#        108746
#        123217
#        137797
#        157428
#        174089
#        185646
#
# Disc length: 2684 seconds
#
# Revision: 3
# Processed by: cddbd v1.5.2PL0 Copyright (c) Steve Scherf et al.
# Submitted via: ExactAudioCopy v0.99pb4
#
DISCID=b70a7a0e
DTITLE=William Bell - The Best Of William Bell
DYEAR=2002
DGENRE=Soul
TTITLE0=I Forgot To Be Your Lover
TTITLE1=Private Number (with Judy Clay)
TTITLE2=Born Under A Bad Sign
TTITLE3=My Kind Of Girl
TTITLE4=Lonely Soldier
TTITLE5=Save Us
TTITLE6=A Penny For Your Thoughts 
TTITLE7=My Baby Specializes (with Judy Clay)
TTITLE8=My Whole World Is Falling Down
TTITLE9=All For The Love Of A Woman
TTITLE10='Till My Back Ain't Got No Bone
TTITLE11=I'll Be Home
TTITLE12=A Smile Can't Hide (A Broken Heart)
TTITLE13=Gettin' What You Want (Losin' What You Got)
EXTD=Label: Stax Records (Fantasy Inc.]\nSCD24 8541-2\n24 BIT Remaster
EXTD=ed
EXTT0=
EXTT1=
EXTT2=
EXTT3=
EXTT4=
EXTT5=
EXTT6=
EXTT7=
EXTT8=
EXTT9=
EXTT10=
EXTT11=
EXTT12=
EXTT13=
PLAYORDER=
